# xmcd CD database file
#
# Track frame offsets:
#	150
#	24150
#	48000
#	65062
#	84825
#	103012
#	123037
#	132225
#	150037
#	166500
#	186787
#	209250
#
# Disc length: 3088 seconds
#
# Revision: 2
# Processed by: cddbd v1.5.2PL0 Copyright (c) Steve Scherf et al.
# Submitted via: CDex 1.70beta2
#
DISCID=810c0e0c
DTITLE=KIRARA OST-Soundlink- On The Web - KIRARA OST-Soundlink- On The Web
DYEAR=2008
DGENRE=Salsa
TTITLE0=Power of Love
TTITLE1=Power of Love (Opening Theme)
TTITLE2=Stay
TTITLE3=Summer is Over
TTITLE4=Thinking
TTITLE5=Smile Again~Acc.ver.
TTITLE6=Love is here
TTITLE7=Walk in the Rain
TTITLE8=After The Rain
TTITLE9=Time To Bound
TTITLE10=Smile Again (Ending Theme)
TTITLE11=Smile Again~
EXTD=YEAR: 2008
EXTT0=
EXTT1=
EXTT2=
EXTT3=
EXTT4=
EXTT5=
EXTT6=
EXTT7=
EXTT8=
EXTT9=
EXTT10=
EXTT11=
PLAYORDER=
